<svg width="1920" height="1080" viewBox="0 0 1920 1080" fill="none" xmlns="http://www.w3.org/2000/svg">
<g clip-path="url(#clip0_7_6)">
<rect width="1920" height="1080" fill="#7964C9"/>
<path d="M584.233 516H648.835V502.747H603.878L648.58 438.571V428.727H583.977V441.98H628.977L584.233 506.156V516ZM681.087 517.321C691.357 517.321 697.493 512.506 700.306 507.009H700.817V516H715.647V472.193C715.647 454.892 701.542 449.693 689.056 449.693C675.292 449.693 664.724 455.83 661.314 467.761L675.718 469.807C677.252 465.332 681.599 461.497 689.141 461.497C696.3 461.497 700.221 465.162 700.221 471.597V471.852C700.221 476.284 695.576 476.497 684.027 477.733C671.329 479.097 659.184 482.889 659.184 497.634C659.184 510.503 668.601 517.321 681.087 517.321ZM685.093 505.986C678.658 505.986 674.056 503.045 674.056 497.378C674.056 491.455 679.212 488.983 686.116 488.003C690.164 487.449 698.26 486.426 700.263 484.807V492.52C700.263 499.807 694.383 505.986 685.093 505.986ZM758.509 517.278C774.958 517.278 785.441 507.52 786.549 493.628H771.805C770.484 500.659 765.413 504.707 758.637 504.707C749.006 504.707 742.785 496.653 742.785 483.273C742.785 470.062 749.134 462.136 758.637 462.136C766.052 462.136 770.612 466.909 771.805 473.216H786.549C785.484 459.026 774.404 449.693 758.424 449.693C739.248 449.693 727.146 463.543 727.146 483.528C727.146 503.344 738.95 517.278 758.509 517.278ZM813.442 477.648C813.442 468.188 819.323 462.733 827.59 462.733C835.686 462.733 840.459 467.889 840.459 476.71V516H855.885V474.324C855.885 458.514 846.936 449.693 833.343 449.693C823.286 449.693 816.894 454.253 813.868 461.668H813.101V428.727H798.016V516H813.442V477.648ZM958.123 456.597H974.231C971.546 439.466 956.717 427.534 937.413 427.534C914.572 427.534 897.441 444.324 897.441 472.449C897.441 500.062 913.805 517.193 937.882 517.193C959.487 517.193 974.955 503.301 974.955 480.801V470.318H939.544V482.676H959.657C959.402 495.119 951.092 503.003 937.967 503.003C923.35 503.003 913.336 492.051 913.336 472.278C913.336 452.634 923.521 441.724 937.626 441.724C948.151 441.724 955.311 447.349 958.123 456.597ZM988.361 516H1003.79V477.52C1003.79 469.21 1010.05 463.33 1018.53 463.33C1021.13 463.33 1024.37 463.798 1025.69 464.224V450.034C1024.28 449.778 1021.86 449.608 1020.15 449.608C1012.65 449.608 1006.39 453.869 1004 461.455H1003.32V450.545H988.361V516ZM1060.6 517.278C1079.77 517.278 1091.96 503.77 1091.96 483.528C1091.96 463.244 1079.77 449.693 1060.6 449.693C1041.42 449.693 1029.23 463.244 1029.23 483.528C1029.23 503.77 1041.42 517.278 1060.6 517.278ZM1060.68 504.92C1050.07 504.92 1044.87 495.46 1044.87 483.486C1044.87 471.511 1050.07 461.923 1060.68 461.923C1071.12 461.923 1076.32 471.511 1076.32 483.486C1076.32 495.46 1071.12 504.92 1060.68 504.92ZM1155.58 467.847C1153.45 456.767 1144.59 449.693 1129.25 449.693C1113.48 449.693 1102.74 457.449 1102.79 469.551C1102.74 479.097 1108.62 485.403 1121.2 488.003L1132.36 490.347C1138.37 491.668 1141.18 494.097 1141.18 497.804C1141.18 502.278 1136.32 505.645 1128.99 505.645C1121.92 505.645 1117.32 502.577 1116 496.696L1100.95 498.145C1102.87 510.162 1112.97 517.278 1129.04 517.278C1145.4 517.278 1156.95 508.798 1156.99 496.398C1156.95 487.065 1150.94 481.355 1138.58 478.67L1127.42 476.284C1120.77 474.793 1118.13 472.491 1118.17 468.699C1118.13 464.267 1123.03 461.199 1129.46 461.199C1136.58 461.199 1140.33 465.077 1141.52 469.381L1155.58 467.847ZM1220.24 467.847C1218.11 456.767 1209.25 449.693 1193.91 449.693C1178.14 449.693 1167.4 457.449 1167.45 469.551C1167.4 479.097 1173.28 485.403 1185.86 488.003L1197.02 490.347C1203.03 491.668 1205.84 494.097 1205.84 497.804C1205.84 502.278 1200.98 505.645 1193.65 505.645C1186.58 505.645 1181.98 502.577 1180.66 496.696L1165.61 498.145C1167.53 510.162 1177.63 517.278 1193.7 517.278C1210.06 517.278 1221.61 508.798 1221.65 496.398C1221.61 487.065 1215.6 481.355 1203.24 478.67L1192.08 476.284C1185.43 474.793 1182.79 472.491 1182.83 468.699C1182.79 464.267 1187.69 461.199 1194.12 461.199C1201.24 461.199 1204.99 465.077 1206.18 469.381L1220.24 467.847ZM1262.15 517.278C1277.4 517.278 1287.89 509.821 1290.61 498.443L1276.21 496.824C1274.12 502.364 1269.01 505.261 1262.36 505.261C1252.39 505.261 1245.78 498.699 1245.66 487.491H1291.25V482.761C1291.25 459.793 1277.45 449.693 1261.34 449.693C1242.59 449.693 1230.36 463.457 1230.36 483.656C1230.36 504.196 1242.42 517.278 1262.15 517.278ZM1245.7 477.094C1246.17 468.741 1252.35 461.71 1261.55 461.71C1270.41 461.71 1276.38 468.188 1276.47 477.094H1245.7ZM1303.1 516H1318.53V477.52C1318.53 469.21 1324.79 463.33 1333.27 463.33C1335.87 463.33 1339.11 463.798 1340.43 464.224V450.034C1339.03 449.778 1336.6 449.608 1334.89 449.608C1327.39 449.608 1321.13 453.869 1318.74 461.455H1318.06V450.545H1303.1V516Z" fill="#FFFDFA"/>
<path d="M683.762 627H688.505V618.153H693.516C699.563 618.153 702.81 614.523 702.81 609.486C702.81 604.487 699.601 600.818 693.58 600.818H683.762V627ZM688.505 614.254V604.781H692.851C696.405 604.781 697.978 606.699 697.978 609.486C697.978 612.273 696.405 614.254 692.877 614.254H688.505ZM733.205 613.909C733.205 605.446 728.04 600.46 721.175 600.46C714.297 600.46 709.145 605.446 709.145 613.909C709.145 622.359 714.297 627.358 721.175 627.358C728.04 627.358 733.205 622.372 733.205 613.909ZM728.436 613.909C728.436 619.866 725.445 623.101 721.175 623.101C716.918 623.101 713.913 619.866 713.913 613.909C713.913 607.952 716.918 604.717 721.175 604.717C725.445 604.717 728.436 607.952 728.436 613.909ZM740.569 627H745.312V617.412H750.144L755.283 627H760.576L754.912 616.619C757.993 615.379 759.617 612.746 759.617 609.192C759.617 604.193 756.395 600.818 750.387 600.818H740.569V627ZM745.312 613.474V604.781H749.658C753.199 604.781 754.785 606.405 754.785 609.192C754.785 611.979 753.199 613.474 749.684 613.474H745.312ZM765.712 604.794H773.804V627H778.509V604.794H786.601V600.818H765.712V604.794ZM793.508 627H798.251V615.878H809.13V611.902H798.251V604.794H810.281V600.818H793.508V627ZM840.877 613.909C840.877 605.446 835.712 600.46 828.847 600.46C821.969 600.46 816.817 605.446 816.817 613.909C816.817 622.359 821.969 627.358 828.847 627.358C835.712 627.358 840.877 622.372 840.877 613.909ZM836.108 613.909C836.108 619.866 833.117 623.101 828.847 623.101C824.59 623.101 821.586 619.866 821.586 613.909C821.586 607.952 824.59 604.717 828.847 604.717C833.117 604.717 836.108 607.952 836.108 613.909ZM848.241 627H864.515V623.024H852.984V600.818H848.241V627ZM876.255 600.818H871.512V627H876.255V600.818ZM907.665 613.909C907.665 605.446 902.501 600.46 895.636 600.46C888.758 600.46 883.606 605.446 883.606 613.909C883.606 622.359 888.758 627.358 895.636 627.358C902.501 627.358 907.665 622.372 907.665 613.909ZM902.897 613.909C902.897 619.866 899.905 623.101 895.636 623.101C891.378 623.101 888.374 619.866 888.374 613.909C888.374 607.952 891.378 604.717 895.636 604.717C899.905 604.717 902.897 607.952 902.897 613.909ZM926.839 627H931.582V618.153H936.593C942.64 618.153 945.887 614.523 945.887 609.486C945.887 604.487 942.679 600.818 936.657 600.818H926.839V627ZM931.582 614.254V604.781H935.929C939.483 604.781 941.055 606.699 941.055 609.486C941.055 612.273 939.483 614.254 935.954 614.254H931.582ZM952.887 627H957.63V617.412H962.462L967.602 627H972.894L967.231 616.619C970.312 615.379 971.935 612.746 971.935 609.192C971.935 604.193 968.714 600.818 962.705 600.818H952.887V627ZM957.63 613.474V604.781H961.977C965.518 604.781 967.103 606.405 967.103 609.192C967.103 611.979 965.518 613.474 962.002 613.474H957.63ZM979.181 627H996.312V623.024H983.924V615.878H995.327V611.902H983.924V604.794H996.21V600.818H979.181V627ZM1018.16 608.016H1022.72C1022.63 603.592 1018.86 600.46 1013.29 600.46C1007.79 600.46 1003.66 603.554 1003.67 608.182C1003.67 611.94 1006.34 614.101 1010.65 615.213L1013.63 615.98C1016.46 616.696 1018.32 617.578 1018.34 619.611C1018.32 621.848 1016.2 623.344 1013.11 623.344C1010.14 623.344 1007.84 622.014 1007.65 619.266H1002.98C1003.17 624.469 1007.05 627.396 1013.15 627.396C1019.42 627.396 1023.07 624.264 1023.08 619.649C1023.07 615.111 1019.32 613.04 1015.38 612.107L1012.93 611.493C1010.78 610.982 1008.45 610.074 1008.48 607.888C1008.49 605.919 1010.26 604.474 1013.22 604.474C1016.05 604.474 1017.91 605.791 1018.16 608.016ZM1030.19 627H1047.32V623.024H1034.93V615.878H1046.33V611.902H1034.93V604.794H1047.22V600.818H1030.19V627ZM1076.45 600.818H1071.73V618.665H1071.5L1059.18 600.818H1054.93V627H1059.68V609.166H1059.89L1072.23 627H1076.45V600.818ZM1083.35 604.794H1091.44V627H1096.14V604.794H1104.24V600.818H1083.35V604.794ZM1111.34 627L1113.5 620.544H1123.35L1125.52 627H1130.58L1121.35 600.818H1115.5L1106.28 627H1111.34ZM1114.78 616.734L1118.32 606.188H1118.53L1122.07 616.734H1114.78ZM1132.6 604.794H1140.69V627H1145.39V604.794H1153.48V600.818H1132.6V604.794ZM1165.13 600.818H1160.39V627H1165.13V600.818ZM1196.55 613.909C1196.55 605.446 1191.38 600.46 1184.52 600.46C1177.64 600.46 1172.49 605.446 1172.49 613.909C1172.49 622.359 1177.64 627.358 1184.52 627.358C1191.38 627.358 1196.55 622.372 1196.55 613.909ZM1191.78 613.909C1191.78 619.866 1188.79 623.101 1184.52 623.101C1180.26 623.101 1177.25 619.866 1177.25 613.909C1177.25 607.952 1180.26 604.717 1184.52 604.717C1188.79 604.717 1191.78 607.952 1191.78 613.909ZM1225.43 600.818H1220.71V618.665H1220.48L1208.15 600.818H1203.91V627H1208.65V609.166H1208.87L1221.21 627H1225.43V600.818ZM732.903 686H737.646V674.878H748.525V670.902H737.646V663.794H749.676V659.818H732.903V686ZM780.272 672.909C780.272 664.446 775.107 659.46 768.242 659.46C761.364 659.46 756.212 664.446 756.212 672.909C756.212 681.359 761.364 686.358 768.242 686.358C775.107 686.358 780.272 681.372 780.272 672.909ZM775.503 672.909C775.503 678.866 772.512 682.101 768.242 682.101C763.985 682.101 760.981 678.866 760.981 672.909C760.981 666.952 763.985 663.717 768.242 663.717C772.512 663.717 775.503 666.952 775.503 672.909ZM787.636 686H792.379V676.412H797.211L802.35 686H807.643L801.98 675.619C805.061 674.379 806.684 671.746 806.684 668.192C806.684 663.193 803.463 659.818 797.454 659.818H787.636V686ZM792.379 672.474V663.781H796.725C800.267 663.781 801.852 665.405 801.852 668.192C801.852 670.979 800.267 672.474 796.751 672.474H792.379ZM827.12 689.145H836.363V685.604H831.569V660.214H836.363V656.661H827.12V689.145ZM865.198 668.652C864.393 662.835 859.918 659.46 854.114 659.46C847.275 659.46 842.123 664.446 842.123 672.909C842.123 681.359 847.211 686.358 854.114 686.358C860.34 686.358 864.469 682.331 865.198 677.332L860.417 677.307C859.816 680.375 857.31 682.101 854.178 682.101C849.934 682.101 846.891 678.918 846.891 672.909C846.891 667.003 849.908 663.717 854.191 663.717C857.374 663.717 859.867 665.52 860.417 668.652H865.198ZM895.816 672.909C895.816 664.446 890.652 659.46 883.787 659.46C876.909 659.46 871.757 664.446 871.757 672.909C871.757 681.359 876.909 686.358 883.787 686.358C890.652 686.358 895.816 681.372 895.816 672.909ZM891.048 672.909C891.048 678.866 888.056 682.101 883.787 682.101C879.529 682.101 876.525 678.866 876.525 672.909C876.525 666.952 879.529 663.717 883.787 663.717C888.056 663.717 891.048 666.952 891.048 672.909ZM903.18 659.818V686H907.731V667.974H907.974L915.21 685.923H918.611L925.847 668.013H926.089V686H930.641V659.818H924.837L917.064 678.79H916.757L908.984 659.818H903.18ZM938.685 686H943.428V677.153H948.44C954.487 677.153 957.734 673.523 957.734 668.486C957.734 663.487 954.525 659.818 948.504 659.818H938.685V686ZM943.428 673.254V663.781H947.775C951.329 663.781 952.901 665.699 952.901 668.486C952.901 671.273 951.329 673.254 947.8 673.254H943.428ZM965.178 686L967.338 679.544H977.182L979.355 686H984.418L975.188 659.818H969.332L960.115 686H965.178ZM968.616 675.734L972.158 665.188H972.362L975.903 675.734H968.616ZM1012.26 659.818H1007.54V677.665H1007.31L994.99 659.818H990.746V686H995.489V668.166H995.706L1008.04 686H1012.26V659.818ZM1018.52 659.818L1028.04 676.233V686H1032.77V676.233L1042.3 659.818H1036.94L1030.54 671.401H1030.28L1023.88 659.818H1018.52ZM1081.86 659.818H1077.15V677.665H1076.92L1064.59 659.818H1060.35V686H1065.09V668.166H1065.31L1077.64 686H1081.86V659.818ZM1093.27 686L1095.43 679.544H1105.28L1107.45 686H1112.51L1103.28 659.818H1097.43L1088.21 686H1093.27ZM1096.71 675.734L1100.25 665.188H1100.46L1104 675.734H1096.71ZM1118.84 659.818V686H1123.39V667.974H1123.64L1130.87 685.923H1134.27L1141.51 668.013H1141.75V686H1146.3V659.818H1140.5L1132.73 678.79H1132.42L1124.65 659.818H1118.84ZM1154.35 686H1171.48V682.024H1159.09V674.878H1170.49V670.902H1159.09V663.794H1171.37V659.818H1154.35V686ZM1186.71 656.673H1177.47V660.214H1182.26V685.604H1177.47V689.158H1186.71V656.673Z" fill="#CBBDFF"/>
<path opacity="0.16" d="M153.174 125.967L368.47 -249.727C410.595 -323.236 501.247 -353.327 578.968 -319.599C672.929 -278.824 708.051 -163.619 652.818 -77.3597L365.597 371.204C342.228 407.701 327.934 449.26 323.909 492.411C305.536 689.393 497.226 839.271 683.96 773.927L689.206 772.092C764.656 745.689 847.859 753.41 917.162 793.244L986.452 833.07C1110.39 904.307 1268.69 849.298 1321.75 716.555C1370.74 593.979 1511.06 535.798 1632.41 587.744L1945.43 721.731C1994.13 742.579 2050.7 730.224 2086.28 690.967C2132.15 640.35 2213.75 647.88 2249.59 706.035L2254.62 714.198C2284.84 763.239 2272.01 827.297 2225.23 860.913L2146.01 917.843C2081.4 964.275 1996.4 971.128 1925.19 935.647L1829.3 887.873C1720.43 833.628 1589.23 893.287 1558.54 1010.99C1529.24 1123.35 1430.73 1203.92 1314.79 1210.34L1217.22 1215.74C1153.7 1219.25 1090.8 1201.61 1038.38 1165.56L933.606 1093.51C847.511 1034.31 732.502 1039.8 652.432 1106.92C571.998 1174.35 456.363 1179.55 370.205 1119.61L307.72 1076.13C259.904 1042.86 221.68 997.602 196.883 944.894L129.416 801.49C89.434 716.505 68.7031 623.743 68.7031 529.822V443.263C68.7031 331.94 97.824 222.554 153.174 125.967Z" fill="#CBBDFF"/>
</g>
<defs>
<clipPath id="clip0_7_6">
<rect width="1920" height="1080" fill="white"/>
</clipPath>
</defs>
</svg>
